<?xml version="1.0" encoding="UTF-8" standalone="no"?>
<!-- Created with Inkscape (http://www.inkscape.org/) -->
<svg xmlns:dc="http://purl.org/dc/elements/1.1/" xmlns:cc="http://creativecommons.org/ns#" xmlns:rdf="http://www.w3.org/1999/02/22-rdf-syntax-ns#" xmlns:svg="http://www.w3.org/2000/svg" xmlns="http://www.w3.org/2000/svg" xmlns:sodipodi="http://sodipodi.sourceforge.net/DTD/sodipodi-0.dtd" xmlns:inkscape="http://www.inkscape.org/namespaces/inkscape" width="1052.3622" height="744.09448" id="svg2" version="1.1" inkscape:version="0.48.4 r9939">
  <defs id="defs4"/>
  <sodipodi:namedview id="base" pagecolor="#ffffff" bordercolor="#666666" borderopacity="1.0" inkscape:pageopacity="0.0" inkscape:pageshadow="2" inkscape:zoom="0.52090672" inkscape:cx="534.98184" inkscape:cy="527.599" inkscape:document-units="px" inkscape:current-layer="layer1" showgrid="false" inkscape:window-width="1412" inkscape:window-height="820" inkscape:window-x="41" inkscape:window-y="24" inkscape:window-maximized="0"/>
  <metadata id="metadata7">
    <rdf:RDF>
      <cc:Work rdf:about="">
        <dc:format>image/svg+xml</dc:format>
        <dc:type rdf:resource="http://purl.org/dc/dcmitype/StillImage"/>
        <dc:title/>
      </cc:Work>
    </rdf:RDF>
  </metadata>
  <g inkscape:label="Ebene 1" inkscape:groupmode="layer" id="layer1" transform="translate(0,-308.2677)">
    <path style="fill:#d40000" d="m 870.94414,936.18718 c -0.1613,-0.1613 -5.2188,-0.3668 -11.2388,-0.4566 -6.02,-0.09 -11.9579,-0.5415 -13.1954,-1.004 -2.649,-0.9898 -2.9855,-4.9796 -0.75,-8.8903 0.786,-1.375 1.4485,-4.075 1.4722,-6 0.024,-1.925 0.9519,-6.425 2.0627,-10 1.1109,-3.575 2.7028,-10.1 3.5377,-14.5 0.8349,-4.4 2.3573,-10.7 3.3831,-14 1.0258,-3.3 2.1097,-8.025 2.4086,-10.5 0.2989,-2.475 1.408,-7.2 2.4646,-10.5 1.0566,-3.3 2.2377,-8.3122 2.6246,-11.1383 0.6358,-4.6442 0.4822,-5.2933 -1.5975,-6.75 -2.4815,-1.7381 -12.3385,-2.2259 -14.7026,-0.7277 -0.7406,0.4694 -1.933,3.5 -2.6498,6.7347 -1.8805,8.4858 -8.2875,34.0202 -10.0068,39.8813 -0.8067,2.75 -1.984,7.4707 -2.6162,10.4903 -1.4622,6.9843 -2.8523,9.0503 -8.1205,12.0688 l -4.2601,2.4409 -51,0 c -64.977,0 -82.4387,-0.5746 -85.8746,-2.8259 -4.5005,-2.9488 -4.9503,-4.9503 -3.1462,-13.9991 0.8964,-4.4962 2.0357,-9.525 2.5318,-11.175 0.496,-1.65 1.8698,-6.375 3.0528,-10.5 1.183,-4.125 3.0156,-10.2701 4.0724,-13.6558 1.0568,-3.3857 2.1968,-9.1041 2.5333,-12.7074 0.5904,-6.3232 0.5224,-6.5922 -1.9524,-7.7198 -3.7019,-1.6867 -9.6047,-0.3604 -10.6234,2.387 -1.1704,3.1568 -4.7492,15.1798 -9.4347,31.696 -0.8582,3.025 -2.9871,10.45 -4.731,16.5 -1.7439,6.05 -3.5961,12.8823 -4.116,15.1829 -0.52,2.3006 -1.4815,4.6279 -2.1369,5.1718 -0.6553,0.5439 -4.1128,1.0754 -7.6833,1.181 -14.4191,0.4269 -116.7584,-0.9012 -120.2744,-1.5609 -2.832,-0.5312 -3.667,-1.1176 -3.335,-2.3417 0.2436,-0.8982 0.9794,-4.005 1.635,-6.9039 0.7201,-3.1841 1.9164,-5.6586 3.0216,-6.25 1.0062,-0.5386 7.5272,-0.9792 14.491,-0.9792 14.437,0 16.6391,-0.7647 20.2455,-7.0311 2.8084,-4.8796 3.075,-12.4268 0.4745,-13.4299 -0.9625,-0.3712 -5.9443,-1.0302 -11.0706,-1.4644 -11.7394,-0.9943 -14.5504,-2.7188 -14.9554,-9.1752 -0.1518,-2.4196 0.5682,-7.4114 1.6,-11.0927 1.0318,-3.6813 1.831,-8.1813 1.776,-10 l -0.1,-3.3067 -6.4661,-0.3033 c -8.5212,-0.3997 -14.8171,1.8786 -15.5766,5.6368 -0.8723,4.3168 -7.165,25.7338 -17.82217,60.6576 -2.0676,6.7757 -1.0086,6.6471 -49.6351,6.026 -23.925,-0.3055 -61.05,-0.7775 -82.5,-1.0487 -21.45,-0.2712 -60.07,-0.5263 -85.8223,-0.5669 -25.7522,-0.041 -49.59409,-0.4656 -52.98179,-0.9445 -6.859,-0.9695 -8.6959,-2.548 -8.6959,-7.4729 0,-3.1348 3.7193,-15.1993 6.5156,-21.1352 0.8164,-1.7331 1.4844,-3.9382 1.4844,-4.9001 0,-0.9619 1.0753,-4.0439 2.3896,-6.8489 5.5097,-11.7591 6.6104,-14.3955 6.6104,-15.8337 0,-0.8331 0.6762,-3.4313 1.5027,-5.7737 1.99199,-5.646 0.55869,-11.6384 -3.1182,-13.0364 -9.2362,-3.5116 -17.861,1.4569 -21.7753,12.5439 -0.9709,2.75 -3.0482,8.15 -4.6162,12 -1.568,3.85 -4.2712,10.825 -6.007,15.5 -1.7359,4.675 -3.5678,9.2814 -4.0711,10.2365 -0.5032,0.955 -0.9149,2.4647 -0.9149,3.3547 0,0.8901 -1.0759,3.7604 -2.3909,6.3785 -1.315,2.6181 -2.6874,6.1101 -3.0497,7.7601 -1.0625,4.8374 -3.7815,6.9426 -9.9646,7.7151 -3.058,0.3821 -5.9991,0.4233 -6.5358,0.092 -0.5368,-0.3317 -17.1179,-0.6031 -36.8471,-0.6031 -19.7292,0 -38.2122,-0.3701 -41.0735,-0.8224 -9.426505,-1.4901 -13.018445,-7.5799 -9.227605,-15.6445 1.149,-2.4445 2.0991,-5.462 2.1112,-6.7055 0.012,-1.2435 0.9554,-4.2859 2.0963,-6.7609 1.1409,-2.475 3.625705,-8.5276 5.521705,-13.4501 1.896,-4.9226 3.8363,-9.4226 4.3117,-10 0.4755,-0.5775 1.7438,-3.5249 2.8185,-6.5499 4.4903,-12.6393 8.1328,-21.7713 10.3705,-26 l 2.3812,-4.5 10.9891,-0.6731 c 6.0439,-0.3701 14.0265,-0.4245 17.739,-0.1208 l 6.75,0.5523 0,3.1708 c 0,1.7439 -0.387,3.5983 -0.8599,4.1208 -0.473,0.5225 -3.4311,7.8621 -6.5735,16.3102 -3.1425,8.4481 -6.5231,16.9981 -7.5125,19 -1.667,3.3729 -5.0209,11.7719 -8.0421,20.1398 -0.695,1.925 -1.3195,4.625 -1.3878,6 l -0.1242,2.5 12.434,0.6867 c 7.8662,0.4344 13.1323,0.313 14.3347,-0.3305 1.0453,-0.5595 2.5665,-2.6685 3.3804,-4.6867 0.8138,-2.0182 2.5143,-5.9195 3.7788,-8.6695 3.1195,-6.7843 9.3346,-22.3651 12.5651,-31.5 1.4588,-4.125 3.2382,-8.85 3.9542,-10.5 1.6801,-3.8718 2.6209,-6.1409 4.4596,-10.7564 2.1118,-5.301 4.3945,-5.867 20.9422,-5.1932 12.5928,0.5128 14.4001,0.8099 16.4133,2.6988 2.1133,1.9827 2.6073,2.0396 7.5,0.8632 2.8807,-0.6927 6.3627,-1.6592 7.7377,-2.1479 1.375,-0.4887 8.12499,-1.0901 14.99999,-1.3365 14.5008,-0.5196 21.0506,1.0902 26.695,6.561 3.9897,3.867 4.2733,7.5195 1.305,16.811 -1.1,3.4433 -2,6.7023 -2,7.2423 0,0.5399 -1.9556,5.9938 -4.3457,12.1197 -8.3508,21.4028 -9.1112,24.2915 -7.1732,27.2494 1.569,2.3947 5.3916,3.3886 13.0331,3.3886 8.3232,0 8.7601,-0.6593 16.8994,-25.5 0.9011,-2.75 2.3204,-7.025 3.1541,-9.5 0.8337,-2.475 2.3728,-7.6413 3.4203,-11.4807 1.7491,-6.4113 1.7739,-7.125 0.3032,-8.75 -0.8806,-0.9732 -2.6299,-1.7694 -3.8872,-1.7694 -1.2573,0 -2.5553,-0.4357 -2.8844,-0.9683 -0.7651,-1.2378 2.0084,-11.9597 3.4724,-13.4239 0.6092,-0.6093 3.1566,-1.1644 5.6609,-1.2336 3.3802,-0.093 5.1395,-0.7374 6.8289,-2.5 2.1916,-2.2866 6.5182,-13.5131 6.5182,-16.9133 0,-0.908 0.7954,-2.3707 1.7676,-3.2505 1.497,-1.3549 4.4436,-1.5699 19.25,-1.405 l 17.4824,0.1946 -0.125,3.5 c -0.069,1.925 -1.0601,6.8545 -2.2029,10.9544 -2.4152,8.6648 -1.8803,10.0456 3.8913,10.0456 2.1002,0 4.1003,0.4559 4.4447,1.0132 0.8785,1.4214 -2.2037,11.5396 -4.0896,13.4255 -0.982,0.982 -3.3448,1.5613 -6.3675,1.5613 -2.6434,0 -5.2741,0.5639 -5.846,1.253 -1.3053,1.5728 -11.6878,31.6356 -14.4857,41.9436 -3.3281,12.2617 -0.9552,14.4533 14.7465,13.62 5.52,-0.2929 6.1364,-0.5704 8.25,-3.7144 1.2563,-1.8689 2.3076,-4.5689 2.3362,-6 0.045,-2.2446 3.1195,-11.9409 9.2279,-29.1022 0.881,-2.475 2.3757,-7.425 3.3217,-11 2.9622,-11.1954 5.9736,-15.7567 12.6165,-19.1101 l 5.8014,-2.9285 29.5326,0.5239 c 28.9375,0.5134 29.631,0.5738 34.4195,3.0003 2.6878,1.362 5.1128,2.842 5.3889,3.2888 1.7422,2.8189 0.5503,15.7003 -2.1952,23.7256 -0.5645,1.65 -2.2167,6.918 -3.6715,11.7067 -1.7235,5.6727 -3.2286,8.8836 -4.3195,9.2146 -0.9209,0.2794 -5.2743,0.4745 -9.6743,0.4335 -25.6993,-0.239 -36.3251,-0.1155 -38.5718,0.4484 -3.2536,0.8166 -5.9282,6.3414 -5.9282,12.2455 0,3.9485 0.372,4.707 3.132,6.3854 2.883,1.7533 5.47,1.9112 32.5469,1.9867 34.4287,0.096 34.342,0.1152 36.7843,-8.1089 0.8453,-2.8462 1.5368,-6.1916 1.5368,-7.4343 0,-1.2428 0.4048,-2.5097 0.8995,-2.8155 0.4948,-0.3057 1.4296,-2.9198 2.0775,-5.809 0.6479,-2.8892 1.7677,-6.6031 2.4886,-8.2531 1.7741,-4.061 2.9854,-8.1336 6.09,-20.4768 1.4494,-5.7623 3.5014,-12.1748 4.5601,-14.25 l 1.9249,-3.7732 16.9863,0 c 16.84357,0 17.00447,0.021 19.14627,2.4842 1.3306,1.5303 2.576,2.1571 3.2434,1.6323 0.5959,-0.4685 3.3363,-1.5861 6.0898,-2.4836 4.2903,-1.3984 10.4906,-1.6233 43.3431,-1.5722 21.8363,0.034 39.4203,0.4716 40.8545,1.0169 2.0696,0.7869 2.4224,1.4438 1.9815,3.6899 -1.1364,5.7888 -3.2634,10.2838 -5.1838,10.9545 -1.1009,0.3845 -8.4978,0.7169 -16.4374,0.7386 l -14.4356,0.04 -1.9137,3.2624 c -2.3153,3.9473 -2.6452,9.7511 -0.6636,11.6763 0.8805,0.8555 5.4667,1.8018 11.6941,2.4131 13.4837,1.3235 16.2545,3.0762 16.2545,10.282 0,2.7487 -0.4357,5.8118 -0.9683,6.807 -1.5319,2.8622 -4.9322,19.4797 -4.1538,20.2996 1.0897,1.1478 9.6832,2.0866 12.539,1.3698 2.4943,-0.626 6.5831,-6.7845 6.5831,-9.9152 0,-0.7615 0.9153,-4.0419 2.0339,-7.2898 3.0122,-8.7455 7.3439,-24.253 10.3088,-36.9052 0.7733,-3.3 2.8125,-10.136 4.5316,-15.1911 1.7191,-5.0551 3.1257,-9.9068 3.1257,-10.7815 0,-2.5949 4.0364,-13.9133 5.4976,-15.4156 1.0342,-1.0633 5.1931,-1.4144 17.7717,-1.5 21.6094,-0.1471 21.2652,-0.4189 17.343,13.687 -2.0843,7.4962 -2.1575,14.7011 -0.1493,14.7011 0.8046,0 3.8421,-0.9524 6.75,-2.1165 7.3867,-2.9571 26.3998,-3.033 32.9589,-0.1316 5.3221,2.3542 9.8306,7.4384 9.821,11.0749 -0.016,6.217 -3.154,22.4798 -6.7859,35.1732 -0.8655,3.025 -1.5122,6.3793 -1.4371,7.4539 0.075,1.0747 -0.3031,2.4837 -0.8404,3.1311 -0.5374,0.6475 -1.6501,3.7615 -2.4728,6.9201 -1.9608,7.528 -1.1629,8.4949 7.0108,8.4949 7.8774,0 8.5805,-0.765 11.9464,-13 5.9061,-21.4689 7.8381,-28.6743 8.5799,-32 2.1594,-9.6802 4.4295,-16.7671 6.1462,-19.1868 1.0791,-1.521 4.3909,-3.6904 7.6331,-5 l 5.7269,-2.3132 66.4318,0.1964 c 65.9697,0.195 66.4517,0.2111 69.2999,2.3168 2.7775,2.0535 3.222,2.0813 14.0682,0.88 21.5823,-2.3905 29.6059,-1.7749 33.386,2.5617 5.2377,6.0086 3.6231,21.8312 -5.7357,56.2088 -1.0726,3.94 -1.9502,8.076 -1.9502,9.191 0,1.115 -0.45,2.3054 -1,2.6453 -0.55,0.34 -1,1.411 -1,2.3802 0,2.9235 -8.4159,10.8893 -12.6776,11.9994 -5.1341,1.3374 -34.7382,0.6051 -38.4982,-0.9524 -2.1239,-0.8797 -3.2377,-0.9137 -4.0287,-0.1226 -1.5978,1.5978 -5.7955,14.0885 -5.7955,17.2452 0,1.4879 -0.7115,3.2958 -1.581,4.0175 -1.4049,1.1659 -10.9876,3.0308 -11.7348,2.2836 z m -77.5821,-40.6368 c 3.6276,-2.4404 7.6912,-11.3285 7.8703,-17.2141 0.05,-1.65 0.7519,-3.8735 1.5594,-4.9411 0.8075,-1.0676 1.4682,-2.9589 1.4682,-4.2029 0,-1.244 0.3945,-3.2955 0.8766,-4.5589 1.6083,-4.2145 3.312,-12.2395 3.7198,-17.5214 0.3818,-4.9457 0.246,-5.3058 -2.5469,-6.75 -7.4052,-3.8294 -13.3753,0.7079 -15.682,11.9186 -0.6853,3.3307 -1.7066,7.6307 -2.2696,9.5557 -2.4483,8.3722 -7.0544,27.6856 -7.0752,29.6666 -0.024,2.3143 4.3957,6.2487 7.0794,6.3018 0.8812,0.017 3.1312,-0.997 5,-2.2543 z m 111.8979,1.0128 c 1.925,-0.6837 4.0334,-1.5855 4.6853,-2.004 1.5205,-0.9761 5.2571,-10.8937 6.3006,-16.7229 0.443,-2.475 1.7822,-8.0774 2.9759,-12.4499 1.1938,-4.3724 2.2532,-10.3733 2.3543,-13.3352 0.1563,-4.5764 -0.1707,-5.673 -2.1769,-7.3001 -2.9386,-2.3834 -7.7416,-2.4494 -11.5139,-0.1582 -2.3049,1.3999 -3.2413,3.1335 -4.7237,8.7447 -1.017,3.8493 -1.8608,8.2423 -1.8753,9.7623 -0.014,1.52 -0.416,3.545 -0.8924,4.5 -1.1995,2.4049 -6.1339,22.5824 -6.1339,25.0825 0,2.1856 3.4611,5.1636 5.9725,5.1389 0.8401,-0.01 3.1025,-0.5744 5.0275,-1.2581 z m -482.57817,-40.3352 c 1.9479,-0.7475 4.9712,-10.6897 4.1932,-13.7894 -0.7637,-3.0428 -4.3306,-4.4945 -9.145,-3.7218 -3.9111,0.6277 -4.0065,0.7461 -6.4319,7.9868 -2.4059,7.1826 -2.4186,7.3813 -0.5589,8.7412 1.9385,1.4175 9.0708,1.8852 11.9426,0.7832 z m -286.03749,-53.826 c -2.9258,-1.2735 -5.3843,-5.4911 -5.3843,-9.2369 0,-0.7551 2.1131,-2.7129 4.6958,-4.3508 3.6449,-2.3116 5.8493,-2.978 9.8508,-2.978 12.9386,0 19.2666,6.4684 13.2034,13.4966 -3.663,4.246 -15.8267,5.9151 -22.3657,3.0691 z" id="path3065" inkscape:connector-curvature="0" sodipodi:nodetypes="cccsccsssssscsssscssscsscsccsccccsscsccsssscscsssccscssscsssccsscccssccsscssccccscsssscsccsssssccsssssssscsccscscsscsccsscsssssccccccsscccccsscscscscsccsscssscsccccsscscscssssssssscsccssscsscscscsscssccscccccsscscsccccssccccccccscscssssccscssc"/>
    <path style="fill:#d40000" d="m 480.48155,703.68361 c -14.57059,-13.70541 -13.31204,-13.0001 -25.97911,-14.55913 -8.56577,-1.05425 -11.59178,-1.81696 -12.58214,-3.17136 -1.42186,-1.94451 -1.55619,-6.44355 -1.38542,-46.40101 0.0576,-13.475 0.0879,-29.1714 0.0672,-34.88089 -0.053,-14.68746 0.5524,-15.83325 6.68318,-12.64845 1.55707,0.80886 6.65603,3.11079 11.33103,5.1154 4.675,2.00461 11.46649,5.13135 15.09219,6.94831 3.6257,1.81695 8.39175,3.78812 10.59121,4.38037 7.8742,2.12031 7.43,-0.89662 7.76626,52.74675 0.28526,45.50617 0.0494,50.33851 -2.45688,50.33851 -0.41929,0 -4.52669,-3.54083 -9.12756,-7.8685 z m 17.17462,6.41649 c -0.67644,-0.81506 -0.90829,-2.38708 -0.52853,-3.58359 0.37209,-1.17237 0.77982,-10.43594 0.90607,-20.58572 0.17981,-14.45694 0.53852,-18.74663 1.65608,-19.80447 0.7846,-0.74268 5.70155,-3.84865 10.92655,-6.90216 5.225,-3.05352 11.525,-6.95261 14,-8.66466 2.475,-1.71205 9.49933,-6.1266 15.60961,-9.81011 6.11029,-3.6835 15.56029,-9.65711 21,-13.27469 5.43972,-3.61757 11.78205,-7.62622 14.09407,-8.90811 4.20027,-2.32881 5.80055,-4.3896 4.74055,-6.10472 -1.45937,-2.36131 -4.22081,-0.96628 -24.94423,12.6014 -4.4,2.88069 -9.125,5.79821 -10.5,6.48337 -1.375,0.68516 -5.425,3.17338 -9,5.52939 -23.61508,15.56286 -31.42925,20.47608 -32.56593,20.47608 -2.49645,0 -4.43414,-3.14691 -4.50813,-7.32143 -0.0407,-2.29821 -0.19547,-22.85357 -0.34385,-45.67857 -0.28792,-44.28864 -0.21272,-45.07355 4.6168,-48.18597 1.26561,-0.81563 3.8206,-2.00391 5.67775,-2.64062 1.85715,-0.63672 6.65314,-3.127 10.65775,-5.53398 4.00462,-2.40697 8.53268,-4.69043 10.06237,-5.07436 1.52969,-0.38393 4.00316,-1.56813 5.49662,-2.63156 1.49345,-1.06343 3.35418,-1.93351 4.13497,-1.93351 0.78078,0 3.63488,-1.575 6.34243,-3.5 2.70755,-1.925 5.87397,-3.5 7.03648,-3.5 1.1625,0 3.81456,-1.15427 5.89345,-2.56504 2.07889,-1.41077 8.10418,-4.61305 13.38954,-7.11617 5.28536,-2.50312 10.28475,-5.11431 11.10975,-5.80264 0.825,-0.68834 6.225,-3.36939 12,-5.9579 5.775,-2.58852 11.21043,-5.34806 12.07874,-6.13232 2.17974,-1.96875 5.68384,-1.788 6.2826,0.32407 0.27286,0.9625 0.80473,9.5125 1.18192,19 0.51507,12.95552 0.39265,17.25 -0.49174,17.25 -1.78852,0 -13.91228,5.88255 -19.55152,9.48655 -13.06235,8.34808 -56.83835,33.51345 -58.29777,33.51345 -1.31993,0 -2.55734,3.61641 -1.70776,4.99105 0.88793,1.4367 3.57739,1.24741 5.42679,-0.38196 0.86831,-0.765 5.40374,-3.3169 10.07874,-5.6709 4.675,-2.35399 9.85,-5.25991 11.5,-6.45759 1.65,-1.19769 7.275,-4.56787 12.5,-7.4893 5.225,-2.92143 14.225,-8.12463 20,-11.56267 5.775,-3.43805 12.46701,-6.82852 14.87114,-7.53439 7.48633,-2.19805 7.31358,-3.23856 6.854,41.28261 -0.43172,41.82144 -0.46352,42.06055 -5.97514,44.92016 -1.2375,0.64206 -4.18165,2.7287 -6.54255,4.637 -2.3609,1.90829 -6.40483,4.59273 -8.98652,5.96543 -2.58168,1.37269 -6.27503,3.84051 -8.20745,5.48404 -4.60091,3.9131 -20.10854,14.81652 -21.07312,14.81652 -0.41312,0 -2.63629,1.575 -4.94036,3.5 -2.30407,1.925 -4.59163,3.5 -5.08345,3.5 -0.49182,0 -3.64314,2.1375 -7.00293,4.75 -3.35979,2.6125 -7.75232,5.84004 -9.76117,7.17231 -2.00885,1.33227 -6.38166,4.54014 -9.71736,7.12861 -3.3357,2.58846 -7.6107,5.49724 -9.5,6.46396 -1.8893,0.96672 -5.08221,3.15885 -7.09535,4.87139 -4.01663,3.41689 -10.51367,7.61373 -11.78664,7.61373 -0.44451,0 -1.35049,-0.65341 -2.01327,-1.45201 z M 486.11634,604.09501 c -5.80756,-2.57312 -8.02409,-3.61736 -10.50001,-4.94673 -5.68142,-3.05046 -12.04795,-5.76247 -21.5,-9.15852 -5.49999,-1.97611 -10.81376,-4.54029 -11.80838,-5.69818 -1.63608,-1.90466 -1.76723,-3.8024 -1.37648,-19.9175 0.54159,-22.33535 1.03226,-23.19994 10.4681,-18.44518 9.61099,4.84301 14.21676,4.33601 14.21676,-1.56498 0,-1.61881 0.50844,-3.89332 1.12987,-5.05447 1.23482,-2.30728 2.71354,-11.11953 3.31534,-19.75734 0.51497,-7.39148 1.35029,-12.50949 3.01942,-18.5 2.11241,-7.58146 3.53537,-16.5387 3.53537,-22.25443 0,-3.88717 0.54645,-5.76548 2.25,-7.73401 2.06291,-2.38375 12.60374,-7.38041 23.75001,-11.25818 2.475,-0.86105 7.46089,-2.84531 11.07976,-4.40946 3.61886,-1.56416 6.93759,-2.84392 7.37495,-2.84392 0.43736,0 3.43897,-1.125 6.67024,-2.5 3.23128,-1.375 8.56655,-3.64642 11.85616,-5.0476 3.28961,-1.40118 9.96011,-3.82647 14.82333,-5.38955 4.86323,-1.56307 10.75628,-3.81842 13.09567,-5.01189 6.62685,-3.38077 8.10219,-2.65972 10.18882,4.97964 0.98108,3.59184 2.70599,11.24184 3.83314,17 3.80628,19.44476 4.22479,21.46062 5.2877,25.4694 0.58332,2.2 1.54737,5.48245 2.14233,7.29433 1.41145,4.29844 0.12233,6.33279 -4.9515,7.81393 -2.14533,0.62626 -7.21035,2.85099 -11.25559,4.94385 -10.94778,5.66397 -10.64501,6.22348 -10.64501,-19.67204 l 0,-21.38007 -3.22762,0.14501 c -1.77519,0.0798 -7.40019,2.14666 -12.5,4.59311 -5.09981,2.44645 -11.07238,4.99125 -13.27238,5.6551 -2.2,0.66385 -6.925,2.49854 -10.5,4.0771 -3.575,1.57856 -10.2485,4.35287 -14.83,6.16512 -4.5815,1.81226 -8.70133,3.98883 -9.15516,4.83683 -0.86704,1.62008 -1.44757,22.82556 -1.07106,39.12357 0.25423,11.00484 -0.0707,11.60839 -8.42051,15.64048 -4.8026,2.31916 -10.13409,4.92952 -15.5162,7.59692 -1.37111,0.67953 -2.62988,1.94664 -2.79727,2.81581 -0.30377,1.57734 1.81749,2.59901 15.7902,7.60508 l 5.5,1.97051 0.15099,20.88768 c 0.13949,19.29614 -0.32055,23.54822 -2.52343,23.32373 -0.34516,-0.0352 -1.97756,-0.66209 -3.62756,-1.39315 z" id="path3129" inkscape:connector-curvature="0" sodipodi:nodetypes="cssscssssssccsssssssssssssscsssssssssssssssssssssssssssssssssssssssssssssssssssssssssssssssssssccsssssssssscscs"/>
  </g>
</svg>